# xmcd
#
# Track frame offsets: 
#        150
#        15293
#        30586
#        50776
#        67612
#        81719
#        98988
#        114832
#        135964
#        149799
#        164371
#
# Disc length: 2496 seconds
#
# Revision: 0
# Processed by: cddbd v1.5.2PL0 Copyright (c) Steve Scherf et al.
# Submitted via: ExactAudioCopy v0.99pb5
#
DISCID=8d09be0b
DTITLE=Albert Rogers - Albert Rogers
DYEAR=2013
DGENRE=Blues
TTITLE0=She Caught The Katy
TTITLE1=Sugar Sugar
TTITLE2=Take It From The Top
TTITLE3=Im Not Tired
TTITLE4=Sweet Thang
TTITLE5=Further On Down The Road
TTITLE6=The Same Thing That Made Me Laugh
TTITLE7=Tupelo Honey
TTITLE8=He Drinks Tequila (Ft. Christine Martinez)
TTITLE9=Aint That A Lot Of Love
TTITLE10=That Was Me
EXTD=
EXTT0=
EXTT1=
EXTT2=
EXTT3=
EXTT4=
EXTT5=
EXTT6=
EXTT7=
EXTT8=
EXTT9=
EXTT10=
PLAYORDER=
